<?xml version="1.0" encoding="utf-8"?>
<!-- Generator: Adobe Illustrator 20.0.0, SVG Export Plug-In . SVG Version: 6.00 Build 0)  -->
<svg version="1.1" id="Layer_1" xmlns="http://www.w3.org/2000/svg" xmlns:xlink="http://www.w3.org/1999/xlink" x="0px" y="0px"
	 viewBox="0 0 64 64" style="enable-background:new 0 0 64 64;" xml:space="preserve">
<style type="text/css">
	.st0{fill:#660000;stroke:#666666;stroke-width:0.5;stroke-miterlimit:10;}
</style>
<path class="st0" d="M42.2,28.2L42.2,28.2c-0.2-0.1-0.3-0.1-0.5-0.2c-0.9-0.6-1.6-1.5-1.9-2.5L37.3,9.7V8.9c0-0.9,0.6-1.4,1.3-1.8
	l0,0c0.1,0,0.2-0.1,0.3-0.1c0.9-0.5,1.6-1,1.6-2.2c0-2.7-0.8-2.9-2.4-2.9H25.9c-1.6,0-2.4,0.2-2.4,2.9c0,1.1,0.7,1.7,1.6,2.2
	c0.1,0,0.2,0.1,0.3,0.1l0,0c0.7,0.4,1.3,0.8,1.3,1.8v0.8l-2.4,15.8c-0.2,1.1-0.9,2.1-1.9,2.5c-0.2,0.1-0.3,0.2-0.5,0.2l0,0
	c-2.6,1.4-4.9,4.1-4.9,7.3c0,2.2,0.5,2.8,2.1,2.8h10.8L31.5,62h1l1.6-23.5h10.8c1.6,0,2.1-0.7,2.1-2.8C47,32.4,44.8,29.7,42.2,28.2z
	"/>
</svg>
