<?xml version="1.0" encoding="utf-8"?>
<!-- Generator: Adobe Illustrator 20.0.0, SVG Export Plug-In . SVG Version: 6.00 Build 0)  -->
<svg version="1.1" id="Layer_1" xmlns="http://www.w3.org/2000/svg" xmlns:xlink="http://www.w3.org/1999/xlink" x="0px" y="0px"
	 viewBox="0 0 64 64" style="enable-background:new 0 0 64 64;" xml:space="preserve">
<path d="M42.9,28L42.9,28c-0.2-0.1-0.3-0.1-0.5-0.2c-1-0.6-1.7-1.6-2-2.7L37.7,8.2l0-0.8c0-1,0.6-1.5,1.4-1.9l0,0
	c0.1,0,0.2-0.1,0.3-0.1c1-0.5,1.7-1.1,1.7-2.3c0-2.9-0.9-3.1-2.6-3.1h-13c-1.7,0-2.6,0.2-2.6,3.1c0,1.2,0.7,1.8,1.7,2.3
	c0.1,0,0.2,0.1,0.3,0.1l0,0c0.8,0.4,1.4,0.9,1.4,1.9l0,0.8L23.7,25c-0.2,1.2-1,2.2-2,2.7c-0.2,0.1-0.3,0.2-0.5,0.2l0,0
	c-2.8,1.5-5.2,4.4-5.2,7.8c0,2.3,0.5,3,2.2,3h11.5L31.5,64h1.1l1.7-25.1h11.5c1.7,0,2.2-0.7,2.2-3C48,32.4,45.7,29.5,42.9,28z"/>
</svg>
